<?xml version="1.0" standalone="no"?>
<!DOCTYPE svg PUBLIC "-//W3C//DTD SVG 20010904//EN"
 "http://www.w3.org/TR/2001/REC-SVG-20010904/DTD/svg10.dtd">
<svg version="1.0" xmlns="http://www.w3.org/2000/svg"
 width="478.000000pt" height="478.000000pt" viewBox="0 0 478.000000 478.000000"
 preserveAspectRatio="xMidYMid meet">
<metadata>
Created by potrace 1.14, written by Peter Selinger 2001-2017
</metadata>
<g transform="translate(0.000000,478.000000) scale(0.100000,-0.100000)"
fill="#000000" stroke="none">
<path d="M1177 4204 c-1 -1 -36 -4 -77 -8 -92 -7 -107 -10 -151 -29 -41 -17
-55 -33 -62 -71 -4 -24 3 -37 42 -79 25 -27 91 -86 146 -130 152 -123 283
-251 387 -379 18 -23 40 -49 49 -57 39 -39 98 -124 109 -157 15 -43 7 -101
-20 -154 -47 -92 -388 -349 -628 -472 -53 -28 -104 -56 -112 -63 -8 -7 -64
-38 -125 -71 -60 -32 -116 -64 -123 -71 -7 -7 -18 -13 -23 -13 -13 0 -200
-133 -239 -170 -9 -8 -40 -35 -69 -60 -109 -92 -230 -225 -236 -260 -1 -3 -10
-23 -20 -45 -16 -34 -19 -65 -19 -215 l-1 -175 33 -65 c18 -36 38 -74 45 -85
6 -11 25 -43 41 -70 16 -27 38 -58 48 -69 10 -11 18 -24 18 -28 0 -12 108
-153 153 -199 28 -29 121 -110 183 -159 83 -64 364 -214 364 -193 0 3 6 0 14
-6 11 -9 87 -36 131 -46 6 -1 21 -5 35 -8 26 -7 78 -13 195 -23 91 -9 762 -9
885 -1 110 7 194 15 230 22 14 3 41 8 60 11 19 3 38 8 42 10 4 3 29 7 55 9 74
8 126 17 233 41 14 3 43 10 65 15 22 4 65 16 95 24 63 18 69 20 131 34 25 6
84 24 130 41 46 17 93 33 104 35 11 3 72 27 135 55 63 28 144 63 180 77 36 15
76 34 90 43 14 8 38 22 55 30 16 8 56 32 87 52 31 21 60 38 63 38 6 0 86 51
95 60 3 3 17 11 33 17 15 7 27 17 27 23 0 5 5 10 11 10 13 0 139 95 195 147
59 55 142 159 158 198 8 19 14 55 13 80 -1 31 3 48 13 55 47 27 110 78 126
101 9 14 29 34 43 43 60 40 119 161 126 258 2 33 6 62 8 65 3 2 -1 35 -9 73
-12 67 -20 83 -71 161 l-24 36 40 74 c35 65 40 82 40 141 0 37 -7 87 -15 110
-9 24 -17 48 -18 53 -6 21 -28 72 -56 127 -42 82 -91 151 -205 287 -36 42
-134 134 -178 165 -23 17 -70 54 -104 83 -94 78 -248 165 -428 241 -58 25
-207 78 -460 166 -100 35 -190 68 -200 73 -20 11 -256 90 -291 98 -10 2 -44
11 -74 20 -30 9 -103 17 -162 19 -91 3 -112 1 -138 -16 -29 -17 -31 -22 -29
-66 1 -27 0 -53 -4 -59 -7 -12 -103 19 -192 62 -51 24 -219 82 -265 91 -14 3
-59 14 -100 25 -41 11 -88 22 -103 24 -15 2 -54 9 -85 16 -31 6 -68 12 -82 14
-14 1 -45 5 -70 9 -40 6 -287 15 -293 10z"/>
</g>
</svg>
